<?xml version="1.0" encoding="utf-8"?>
<?xml-stylesheet type="text/xsl" href="rss1.xsl"?>
<rss version="2.0" xmlns:atom="http://www.w3.org/2005/Atom" xmlns:content="http://purl.org/rss/1.0/modules/content/" xmlns:dc="http://purl.org/dc/elements/1.1/" xmlns:media="http://search.yahoo.com/mrss/">
<channel>
 <title>Getty</title>
 <link>http://www.gettyimg.com/</link>
 <atom:link href="http://www.gettyimg.com/" rel="self" type="application/rss+xml" />

 
                <item>
                <title><![CDATA[【PRORES HD】Usher x Zaytoven - Peace Sign |ProRes 4K|]]></title>
                <link><![CDATA[https://sharemania.us/threads/usher-x-zaytoven-peace-sign-prores-4k.227811/]]></link>
                <description><![CDATA[<article>
<blockquote class="messageText SelectQuoteContainer ugc baseHtml">
<div style="text-align: center"><img src="https://i.imgur.com/4rOzjFm.gif" class="bbCodeImage LbImage" alt="[​IMG]" data-url="https://i.imgur.com/4rOzjFm.gif" style=""><br>
<br>
​</div>
<div class="ToggleTriggerAnchor bbCodeSpoilerContainer">
<button type="button" class="button bbCodeSpoilerButton ToggleTrigger Tooltip JsOnly" data-target="> .SpoilerTarget"><span>Spoiler: <span class="SpoilerTitle">ProRes</span></span></button>
<div class="SpoilerTarget bbCodeSpoilerText">
<div class="bbCodeBlock bbCodeCode">
<div class="type">Code:</div>
<pre>Format                                   : MPEG-4
Format profile                           : QuickTime
Codec ID                                 : qt   0000.00 (qt  )
File size                                : 8.95 GiB
Duration                                 : 3 min 1 s
Overall bit rate mode                    : Variable
Overall bit rate                         : 425 Mb/s
Movie name                               : Untitled Project
Description                              : This video is about Untitled Project
Encoded date                             : UTC 2019-07-02 20:58:44
Tagged date                              : UTC 2019-07-02 21:02:23
Writing library                          : Apple QuickTime
com.apple.quicktime.keywords             : 25-06-2019 2
com.apple.quicktime.author               : Yoni Lappin
com.apple.quicktime.title                : Untitled Project

Video
ID                                       : 2
Format                                   : ProRes
Format version                           : Version 0
Format profile                           : 422
Codec ID                                 : apcn
Duration                                 : 3 min 1 s
Bit rate mode                            : Variable
Bit rate                                 : 422 Mb/s
Width                                    : 3 840 pixels
Height                                   : 2 160 pixels
Display aspect ratio                     : 16:9
Frame rate mode                          : Constant
Frame rate                               : 24.000 FPS
Color space                              : YUV
Chroma subsampling                       : 4:2:2
Scan type                                : Progressive
Bits/(Pixel*Frame)                       : 2.121
Stream size                              : 8.90 GiB (99%)
Title                                    : Core Media Video
Writing library                          : Apple
Encoded date                             : UTC 2019-07-02 20:58:44
Tagged date                              : UTC 2019-07-02 21:02:23
Color primaries                          : BT.709
Transfer characteristics                 : BT.709
Matrix coefficients                      : BT.709

Audio
ID                                       : 1
Format                                   : PCM
Format settings                          : Little / Signed
Codec ID                                 : lpcm
Duration                                 : 3 min 1 s
Bit rate mode                            : Constant
Bit rate                                 : 2 304 kb/s
Channel(s)                               : 2 channels
Channel layout                           : L R
Sampling rate                            : 48.0 kHz
Bit depth                                : 24 bits
Stream size                              : 49.7 MiB (0%)
Title                                    : Core Media Audio
Encoded date                             : UTC 2019-07-02 20:58:44
Tagged date                              : UTC 2019-07-02 21:02:23

Other
ID                                       : 3
Type                                     : Time code
Format                                   : QuickTime TC
Duration                                 : 3 min 1 s
Frame rate                               : 24.000 FPS
Time code of first frame                 : 00:00:00:00
Time code, striped                       : Yes
Title                                    : Core Media Time Code
Encoded date                             : UTC 2019-07-02 20:58:44
Tagged date                              : UTC 2019-07-02 21:02:23</pre>
</div><div style="text-align: center">​</div></div>
</div><div style="text-align: center"><br>
<br>
<div class="bbCodeBlock bbCodeVfcHH HiddenContent">
<div class="attribution type">Hidden Content:</div>
<blockquote>You must reply before you can see the hidden data contained here.</blockquote>
</div></div>
<div class="messageTextEndMarker">&nbsp;</div>
</blockquote>
</article>]]></description>
                <author><![CDATA[fstambuk]]></author>
                </item>

                </channel></rss>